{"title":"Bellator 138 Prelims 720p WEB-DL x264 -={SPARROW}=-","uid":12040900,"size":2766374815,"categoryP":"video","categoryS":"hd___tv_shows","magnet":"?xt=urn:btih:e3f553926f5354306832081a4c98d0fb181e1b28&amp;dn=Bellator+138+Prelims+720p+WEB-DL+x264+-%3D%7BSPARROW%7D%3D-&amp;tr=udp%3A%2F%2Ftracker.openbittorrent.com%3A80&amp;tr=udp%3A%2F%2Fopen.demonii.com%3A1337&amp;tr=udp%3A%2F%2Ftracker.coppersurfer.tk%3A6969&amp;tr=udp%3A%2F%2Fexodus.desync.com%3A6969","seeders":2,"leechers":0,"uploader":"CenaCme","files":2,"time":1434784895,"description":"Miles McDonald vs Dan O'Connor\nHugh Pulley vs Eric Irvin\nKyle Kurtz vs Adam Cella\nChris Heatherly vs Garrett Gross\nSean Wilson vs Justin Lawrence\nJustin Guthrie vs Steven Mann\n\nGeneral\nComplete name                            : Bellator.138.Prelims.720p.WEB-DL.x264.mp4\nFormat                                  : MPEG-4\nFormat profile                          : Base Media\nCodec ID                                : isom\nFile size                                : 2.58 GiB\nDuration                                : 1h 47mn\nOverall bit rate mode                    : Constant\nOverall bit rate                        : 3 443 Kbps\nWriting application                      : Lavf56.34.100\n\nVideo\nID                                      : 1\nFormat                                  : AVC\nFormat/Info                              : Advanced Video Codec\nFormat profile                          : &lt;a class=&quot;__cf_email__&quot; href=&quot;/cdn-cgi/l/email-protection&quot; data-cfemail=&quot;eba3828c83aba7dfc5db&quot;&gt;[email&amp;#160;protected]&lt;/a&gt;&lt;script data-cfhash='f9e31' type=&quot;text/javascript&quot;&gt;\n/* &lt;![CDATA[ */!function(){try{var t=&quot;currentScript&quot;in document?document.currentScript:function(){for(var t=document.getElementsByTagName(&quot;script&quot;),e=t.length;e--;)if(t[e].getAttribute(&quot;data-cfhash&quot;))return t[e]}();if(t&amp;&amp;t.previousSibling){var e,r,n,i,c=t.previousSibling,a=c.getAttribute(&quot;data-cfemail&quot;);if(a){for(e=&quot;&quot;,r=parseInt(a.substr(0,2),16),n=2;a.length-n;n+=2)i=parseInt(a.substr(n,2),16)^r,e+=String.fromCharCode(i);e=document.createTextNode(e),c.parentNode.replaceChild(e,c)}t.parentNode.removeChild(t);}}catch(u){}}()/* ]]&gt; */&lt;/script&gt;\nFormat settings, CABAC                  : Yes\nFormat settings, ReFrames                : 4 frames\nFormat settings, GOP                    : M=4, N=90\nCodec ID                                : avc1\nCodec ID/Info                            : Advanced Video Coding\nDuration                                : 1h 47mn\nBit rate mode                            : Constant\nBit rate                                : 3 404 Kbps\nWidth                                    : 1 280 pixels\nHeight                                  : 720 pixels\nDisplay aspect ratio                    : 16:9\nFrame rate mode                          : Variable\nFrame rate                              : 29.970 fps\nMinimum frame rate                      : 10.000 fps\nMaximum frame rate                      : 100.000 fps\nStandard                                : NTSC\nColor space                              : YUV\nChroma subsampling                      : 4:2:0\nBit depth                                : 8 bits\nScan type                                : Progressive\nBits/(Pixel*Frame)                      : 0.123\nStream size                              : 2.54 GiB (98%)\nColor primaries                          : BT.709\nTransfer characteristics                : BT.709\nMatrix coefficients                      : BT.709\n\nAudio\nID                                      : 2\nFormat                                  : AAC\nFormat/Info                              : Advanced Audio Codec\nFormat profile                          : HE-AAC / LC\nCodec ID                                : 40\nDuration                                : 1h 47mn\nBit rate mode                            : Constant\nBit rate                                : 48.0 Kbps\nChannel(s)                              : 2 channels\nChannel positions                        : Front: L R\nSampling rate                            : 48.0 KHz / 24.0 KHz\nCompression mode                        : Lossy\nStream size                              : 35.8 MiB (1%)\n\nText #1\nID                                      : 1-CC1\nFormat                                  : EIA-608\nMuxing mode                              : SCTE 128 / DTVCC Transport\nMuxing mode, more info                  : Muxed in Video #1\nDuration                                : 1h 47mn\nBit rate mode                            : Constant\nStream size                              : 0.00 Byte (0%)\nEncoded stream size                      : 0.00 Byte (0%)\n\nText #2\nID                                      : 1-1\nFormat                                  : EIA-708\nMuxing mode                              : SCTE 128 / DTVCC Transport\nMuxing mode, more info                  : Muxed in Video #1\nDuration                                : 1h 47mn\nBit rate mode                            : Constant\nStream size                              : 0.00 Byte (0%)\nEncoded stream size                      : 0.00 Byte (0%)\n\n\nScreens:\n &lt;a href=&quot;\nhttp://imgsparrow.co/image/a9&quot; rel=&quot;nofollow&quot; target=&quot;_NEW&quot;&gt;\nhttp://imgsparrow.co/image/a9&lt;/a&gt;","torrent":{"xt":"urn:btih:e3f553926f5354306832081a4c98d0fb181e1b28","amp;dn":"Bellator+138+Prelims+720p+WEB-DL+x264+-%3D%7BSPARROW%7D%3D-","amp;tr":["udp%3A%2F%2Ftracker.openbittorrent.com%3A80","udp%3A%2F%2Fopen.demonii.com%3A1337","udp%3A%2F%2Ftracker.coppersurfer.tk%3A6969","udp%3A%2F%2Fexodus.desync.com%3A6969"],"infoHash":"e3f553926f5354306832081a4c98d0fb181e1b28","infoHashBuffer":{"type":"Buffer","data":[227,245,83,146,111,83,84,48,104,50,8,26,76,152,208,251,24,30,27,40]},"announce":[],"urlList":[]}}